<svg width="35" height="41" viewBox="0 0 35 41" fill="none" xmlns="http://www.w3.org/2000/svg">
<path d="M6.0542 3.86214C14.8489 6.49166 20.705 14.7941 20.2282 23.9599L20.2808 23.8998C11.4861 21.2703 5.63006 12.9678 6.10679 3.80202" fill="#A5A8F3"/>
<path d="M34.878 26.6461C30.4306 29.8761 24.3513 29.6461 20.1624 26.0885L20.1719 26.1354C24.6192 22.9053 30.6985 23.1353 34.8875 26.6929" fill="#192960"/>
<path d="M27.0671 12.3967C28.1491 16.8686 26.0329 21.5004 21.9439 23.6083L21.9832 23.6159C20.9011 19.1439 23.0174 14.5121 27.1064 12.4043" fill="#A5A8F3"/>
<path d="M21.225 5.76205C23.2767 8.38619 23.2679 12.073 21.2032 14.6863L21.2314 14.6795C19.1797 12.0554 19.1885 8.36863 21.2532 5.75529" fill="#192960"/>
<path d="M28.9262 0.588045C29.8238 3.79584 28.4114 7.20137 25.507 8.83133L25.5356 8.83581C24.638 5.62802 26.0504 2.22249 28.9548 0.592531" fill="#192960"/>
<path d="M18.8509 25.8561C16.683 33.0525 9.87528 37.8332 2.37139 37.4273L2.42051 37.4704C4.58842 30.274 11.3962 25.4934 18.9 25.8993" fill="#192960"/>
</svg>
